<svg width="914" height="252" viewBox="0 0 914 252" fill="none" xmlns="http://www.w3.org/2000/svg">
<path d="M599.88 1.8273L599.658 11.2241L593.789 11.1725L593.913 5.92135L583.74 5.83187L583.838 1.68621L599.88 1.8273ZM599.266 27.8068L598.875 44.3895L593.006 44.3378L593.397 27.7552L599.266 27.8068ZM598.483 60.9721L598.092 77.5548L592.223 77.5032L592.615 60.9205L598.483 60.9721ZM597.701 94.1374L597.309 110.72L591.44 110.668L591.832 94.0858L597.701 94.1374ZM596.918 127.303L596.526 143.885L590.658 143.834L591.049 127.251L596.918 127.303ZM596.135 160.468L595.744 177.051L589.875 176.999L590.266 160.416L596.135 160.468ZM595.352 193.633L594.961 210.216L589.092 210.164L589.483 193.582L595.352 193.633ZM560.362 1.47973L560.265 5.6254L536.789 5.41892L536.887 1.27325L560.362 1.47973ZM513.411 1.06678L513.314 5.21244L489.838 5.00597L489.936 0.860302L513.411 1.06678ZM466.46 0.653825L466.363 4.79949L442.887 4.59302L442.985 0.447349L466.46 0.653825ZM419.509 0.240873L419.412 4.38654L395.936 4.18006L396.034 0.0343963L419.509 0.240873ZM397.566 18.0162L397.175 34.5988L391.306 34.5472L391.697 17.9645L397.566 18.0162ZM396.783 51.1815L396.392 67.7641L390.523 67.7125L390.914 51.1299L396.783 51.1815ZM396.001 84.3468L395.609 100.929L389.74 100.878L390.132 84.2952L396.001 84.3468ZM395.218 117.512L394.826 134.095L388.957 134.043L389.349 117.461L395.218 117.512ZM394.435 150.677L394.043 167.26L388.175 167.208L388.566 150.626L394.435 150.677ZM393.652 183.843L393.261 200.425L387.392 200.374L387.783 183.791L393.652 183.843ZM392.869 217.008L392.837 218.39L386.968 218.338L387 216.956L392.869 217.008Z" fill="#FFAD08"/>
<rect x="159.732" y="66.9255" width="367.528" height="166.829" fill="#405059"/>
<path d="M366.22 251.41H350.672V244.951H359.361V233.754H366.22V251.41ZM323.234 251.41H295.796V244.951H323.234V251.41ZM268.358 251.41H240.92V244.951H268.358V251.41ZM213.482 251.41H186.044V244.951H213.482V251.41ZM158.606 251.41H131.168V244.951H158.606V251.41ZM103.73 251.41H76.2915V244.951H103.73V251.41ZM48.8535 251.41H21.4154V244.951H48.8535V251.41Z" fill="#010101"/>
<path d="M15.1678 188.895C13.5845 188.895 12.4387 188.707 11.7303 188.332C11.022 187.915 10.6678 187.29 10.6678 186.457V113.145C10.6678 111.478 12.1678 110.645 15.1678 110.645H19.1053C21.5637 110.645 23.1262 111.332 23.7928 112.707L44.7928 149.145L47.6678 156.145L50.5428 149.77L71.6053 112.707C72.3137 111.332 73.8553 110.645 76.2303 110.645H79.9178C82.8762 110.645 84.3553 111.478 84.3553 113.145V186.457C84.3553 188.082 82.8762 188.895 79.9178 188.895H79.1678C77.5845 188.895 76.4387 188.707 75.7303 188.332C75.022 187.915 74.6678 187.29 74.6678 186.457V126.645L74.4803 127.145L52.3553 165.582C52.0637 166.082 51.7303 166.457 51.3553 166.707C50.9803 166.915 50.5012 167.02 49.9178 167.02H45.4803C44.3553 167.02 43.522 166.54 42.9803 165.582L20.3553 126.02V186.457C20.3553 188.082 18.8762 188.895 15.9178 188.895H15.1678ZM100.418 188.895C98.7512 188.895 97.5428 188.749 96.7928 188.457C96.0428 188.124 95.6678 187.645 95.6678 187.02C95.6678 186.728 95.772 186.228 95.9803 185.52L122.293 112.457C122.71 111.249 124.189 110.645 126.73 110.645H129.98C132.522 110.645 134.001 111.249 134.418 112.457L160.73 185.582C160.939 186.04 161.043 186.52 161.043 187.02C161.043 188.27 159.48 188.895 156.355 188.895H155.418C152.835 188.895 151.335 188.311 150.918 187.145L144.418 168.895H111.793L105.418 187.145C105.043 188.311 103.564 188.895 100.98 188.895H100.418ZM141.418 160.457L129.793 127.395C129.46 126.478 129.189 125.436 128.98 124.27C128.772 123.103 128.585 121.978 128.418 120.895H128.168C127.668 123.686 127.105 125.853 126.48 127.395L114.855 160.457H141.418ZM177.668 188.895C174.668 188.895 173.168 188.082 173.168 186.457V113.145C173.168 111.478 174.668 110.645 177.668 110.645H178.543C181.501 110.645 182.98 111.478 182.98 113.145V186.457C182.98 188.082 181.501 188.895 178.543 188.895H177.668ZM220.918 189.332C216.835 189.332 213.022 188.895 209.48 188.02C205.98 187.103 203.168 186.02 201.043 184.77C198.96 183.478 197.918 182.311 197.918 181.27C197.918 180.686 198.147 179.915 198.605 178.957C199.105 177.999 199.668 177.145 200.293 176.395C200.918 175.645 201.418 175.27 201.793 175.27C202.126 175.27 202.855 175.603 203.98 176.27C206.564 177.603 209.126 178.707 211.668 179.582C214.21 180.457 217.293 180.895 220.918 180.895C223.751 180.895 226.272 180.353 228.48 179.27C230.689 178.186 232.397 176.665 233.605 174.707C234.855 172.707 235.48 170.415 235.48 167.832C235.48 165.082 234.73 162.811 233.23 161.02C231.772 159.186 229.98 157.749 227.855 156.707C225.772 155.624 222.73 154.29 218.73 152.707C214.397 151.04 210.96 149.499 208.418 148.082C205.918 146.624 203.772 144.52 201.98 141.77C200.23 139.02 199.355 135.374 199.355 130.832C199.355 126.874 200.376 123.332 202.418 120.207C204.46 117.04 207.355 114.582 211.105 112.832C214.855 111.082 219.168 110.207 224.043 110.207C226.251 110.207 228.772 110.52 231.605 111.145C234.439 111.728 236.855 112.54 238.855 113.582C240.897 114.624 241.918 115.77 241.918 117.02C241.918 117.561 241.689 118.311 241.23 119.27C240.814 120.186 240.314 121.02 239.73 121.77C239.147 122.52 238.689 122.895 238.355 122.895C237.98 122.895 237.23 122.582 236.105 121.957C234.23 120.957 232.376 120.165 230.543 119.582C228.71 118.957 226.48 118.645 223.855 118.645C219.564 118.645 216.085 119.749 213.418 121.957C210.793 124.165 209.48 127.249 209.48 131.207C209.48 133.582 210.064 135.54 211.23 137.082C212.397 138.624 213.876 139.853 215.668 140.77C217.46 141.686 219.96 142.749 223.168 143.957C223.376 143.999 223.855 144.165 224.605 144.457C229.022 146.165 232.626 147.832 235.418 149.457C238.251 151.04 240.647 153.332 242.605 156.332C244.605 159.332 245.605 163.165 245.605 167.832C245.605 172.207 244.585 176.02 242.543 179.27C240.543 182.52 237.668 185.02 233.918 186.77C230.21 188.478 225.876 189.332 220.918 189.332ZM290.668 188.895C289.085 188.895 287.939 188.707 287.23 188.332C286.522 187.915 286.168 187.29 286.168 186.457V113.145C286.168 111.478 287.668 110.645 290.668 110.645H294.605C297.064 110.645 298.626 111.332 299.293 112.707L320.293 149.145L323.168 156.145L326.043 149.77L347.105 112.707C347.814 111.332 349.355 110.645 351.73 110.645H355.418C358.376 110.645 359.855 111.478 359.855 113.145V186.457C359.855 188.082 358.376 188.895 355.418 188.895H354.668C353.085 188.895 351.939 188.707 351.23 188.332C350.522 187.915 350.168 187.29 350.168 186.457V126.645L349.98 127.145L327.855 165.582C327.564 166.082 327.23 166.457 326.855 166.707C326.48 166.915 326.001 167.02 325.418 167.02H320.98C319.855 167.02 319.022 166.54 318.48 165.582L295.855 126.02V186.457C295.855 188.082 294.376 188.895 291.418 188.895H290.668ZM410.355 189.332C399.23 189.332 390.751 185.957 384.918 179.207C379.085 172.457 376.168 162.582 376.168 149.582C376.168 136.624 379.064 126.832 384.855 120.207C390.689 113.54 399.189 110.207 410.355 110.207C421.564 110.207 430.085 113.54 435.918 120.207C441.751 126.832 444.668 136.624 444.668 149.582C444.668 162.582 441.751 172.457 435.918 179.207C430.085 185.957 421.564 189.332 410.355 189.332ZM410.355 180.895C418.189 180.895 424.189 178.228 428.355 172.895C432.522 167.52 434.605 159.749 434.605 149.582C434.605 139.415 432.522 131.728 428.355 126.52C424.23 121.27 418.23 118.645 410.355 118.645C402.522 118.645 396.543 121.27 392.418 126.52C388.293 131.728 386.23 139.415 386.23 149.582C386.23 159.79 388.293 167.561 392.418 172.895C396.543 178.228 402.522 180.895 410.355 180.895ZM465.168 188.707C464.001 188.707 463.147 188.436 462.605 187.895C462.064 187.353 461.793 186.52 461.793 185.395V114.27C461.793 113.103 462.064 112.27 462.605 111.77C463.147 111.228 464.001 110.957 465.168 110.957H485.043C490.46 110.957 495.022 111.77 498.73 113.395C502.439 115.02 505.23 117.311 507.105 120.27C508.98 123.228 509.918 126.665 509.918 130.582C509.918 132.999 509.355 135.415 508.23 137.832C507.105 140.207 505.605 142.27 503.73 144.02C501.855 145.728 499.855 146.874 497.73 147.457V147.895C497.73 147.603 499.168 148.165 502.043 149.582C504.918 150.957 507.501 153.02 509.793 155.77C512.126 158.478 513.293 161.999 513.293 166.332C513.293 181.249 503.626 188.707 484.293 188.707H465.168ZM484.543 144.457C487.46 144.457 490.085 143.895 492.418 142.77C494.751 141.603 496.564 140.04 497.855 138.082C499.189 136.082 499.855 133.874 499.855 131.457C499.855 127.29 498.605 124.249 496.105 122.332C493.605 120.374 489.605 119.395 484.105 119.395H471.605V144.457H484.543ZM487.855 180.27C492.73 180.27 496.501 178.999 499.168 176.457C501.835 173.874 503.168 170.353 503.168 165.895C503.168 161.77 501.71 158.582 498.793 156.332C495.876 154.04 491.585 152.895 485.918 152.895H471.605V180.27H487.855ZM532.168 188.895C529.168 188.895 527.668 188.082 527.668 186.457V113.145C527.668 111.478 529.168 110.645 532.168 110.645H533.043C536.001 110.645 537.48 111.478 537.48 113.145V186.457C537.48 188.082 536.001 188.895 533.043 188.895H532.168Z" fill="#010101"/>
<path d="M24.3011 198.583C22.7178 198.583 21.572 198.396 20.8636 198.021C20.1553 197.604 19.8011 196.979 19.8011 196.146V122.833C19.8011 121.166 21.3011 120.333 24.3011 120.333H28.2386C30.697 120.333 32.2595 121.021 32.9261 122.396L53.9261 158.833L56.8011 165.833L59.6761 159.458L80.7386 122.396C81.447 121.021 82.9886 120.333 85.3636 120.333H89.0511C92.0095 120.333 93.4886 121.166 93.4886 122.833V196.146C93.4886 197.771 92.0095 198.583 89.0511 198.583H88.3011C86.7178 198.583 85.572 198.396 84.8636 198.021C84.1553 197.604 83.8011 196.979 83.8011 196.146V136.333L83.6136 136.833L61.4886 175.271C61.197 175.771 60.8636 176.146 60.4886 176.396C60.1136 176.604 59.6345 176.708 59.0511 176.708H54.6136C53.4886 176.708 52.6553 176.229 52.1136 175.271L29.4886 135.708V196.146C29.4886 197.771 28.0095 198.583 25.0511 198.583H24.3011ZM109.551 198.583C107.884 198.583 106.676 198.437 105.926 198.146C105.176 197.812 104.801 197.333 104.801 196.708C104.801 196.416 104.905 195.916 105.114 195.208L131.426 122.146C131.843 120.937 133.322 120.333 135.864 120.333H139.114C141.655 120.333 143.134 120.937 143.551 122.146L169.864 195.271C170.072 195.729 170.176 196.208 170.176 196.708C170.176 197.958 168.614 198.583 165.489 198.583H164.551C161.968 198.583 160.468 198 160.051 196.833L153.551 178.583H120.926L114.551 196.833C114.176 198 112.697 198.583 110.114 198.583H109.551ZM150.551 170.146L138.926 137.083C138.593 136.166 138.322 135.125 138.114 133.958C137.905 132.791 137.718 131.666 137.551 130.583H137.301C136.801 133.375 136.239 135.541 135.614 137.083L123.989 170.146H150.551ZM186.801 198.583C183.801 198.583 182.301 197.771 182.301 196.146V122.833C182.301 121.166 183.801 120.333 186.801 120.333H187.676C190.634 120.333 192.114 121.166 192.114 122.833V196.146C192.114 197.771 190.634 198.583 187.676 198.583H186.801ZM230.051 199.021C225.968 199.021 222.155 198.583 218.614 197.708C215.114 196.791 212.301 195.708 210.176 194.458C208.093 193.166 207.051 192 207.051 190.958C207.051 190.375 207.28 189.604 207.739 188.646C208.239 187.687 208.801 186.833 209.426 186.083C210.051 185.333 210.551 184.958 210.926 184.958C211.259 184.958 211.989 185.291 213.114 185.958C215.697 187.291 218.259 188.396 220.801 189.271C223.343 190.146 226.426 190.583 230.051 190.583C232.884 190.583 235.405 190.041 237.614 188.958C239.822 187.875 241.53 186.354 242.739 184.396C243.989 182.396 244.614 180.104 244.614 177.521C244.614 174.771 243.864 172.5 242.364 170.708C240.905 168.875 239.114 167.437 236.989 166.396C234.905 165.312 231.864 163.979 227.864 162.396C223.53 160.729 220.093 159.187 217.551 157.771C215.051 156.312 212.905 154.208 211.114 151.458C209.364 148.708 208.489 145.062 208.489 140.521C208.489 136.562 209.509 133.021 211.551 129.896C213.593 126.729 216.489 124.271 220.239 122.521C223.989 120.771 228.301 119.896 233.176 119.896C235.384 119.896 237.905 120.208 240.739 120.833C243.572 121.416 245.989 122.229 247.989 123.271C250.03 124.312 251.051 125.458 251.051 126.708C251.051 127.25 250.822 128 250.364 128.958C249.947 129.875 249.447 130.708 248.864 131.458C248.28 132.208 247.822 132.583 247.489 132.583C247.114 132.583 246.364 132.271 245.239 131.646C243.364 130.646 241.509 129.854 239.676 129.271C237.843 128.646 235.614 128.333 232.989 128.333C228.697 128.333 225.218 129.437 222.551 131.646C219.926 133.854 218.614 136.937 218.614 140.896C218.614 143.271 219.197 145.229 220.364 146.771C221.53 148.312 223.009 149.541 224.801 150.458C226.593 151.375 229.093 152.437 232.301 153.646C232.509 153.687 232.989 153.854 233.739 154.146C238.155 155.854 241.759 157.521 244.551 159.146C247.384 160.729 249.78 163.021 251.739 166.021C253.739 169.021 254.739 172.854 254.739 177.521C254.739 181.896 253.718 185.708 251.676 188.958C249.676 192.208 246.801 194.708 243.051 196.458C239.343 198.166 235.009 199.021 230.051 199.021ZM299.801 198.583C298.218 198.583 297.072 198.396 296.364 198.021C295.655 197.604 295.301 196.979 295.301 196.146V122.833C295.301 121.166 296.801 120.333 299.801 120.333H303.739C306.197 120.333 307.759 121.021 308.426 122.396L329.426 158.833L332.301 165.833L335.176 159.458L356.239 122.396C356.947 121.021 358.489 120.333 360.864 120.333H364.551C367.509 120.333 368.989 121.166 368.989 122.833V196.146C368.989 197.771 367.509 198.583 364.551 198.583H363.801C362.218 198.583 361.072 198.396 360.364 198.021C359.655 197.604 359.301 196.979 359.301 196.146V136.333L359.114 136.833L336.989 175.271C336.697 175.771 336.364 176.146 335.989 176.396C335.614 176.604 335.134 176.708 334.551 176.708H330.114C328.989 176.708 328.155 176.229 327.614 175.271L304.989 135.708V196.146C304.989 197.771 303.509 198.583 300.551 198.583H299.801ZM419.489 199.021C408.364 199.021 399.884 195.646 394.051 188.896C388.218 182.146 385.301 172.271 385.301 159.271C385.301 146.312 388.197 136.521 393.989 129.896C399.822 123.229 408.322 119.896 419.489 119.896C430.697 119.896 439.218 123.229 445.051 129.896C450.884 136.521 453.801 146.312 453.801 159.271C453.801 172.271 450.884 182.146 445.051 188.896C439.218 195.646 430.697 199.021 419.489 199.021ZM419.489 190.583C427.322 190.583 433.322 187.916 437.489 182.583C441.655 177.208 443.739 169.437 443.739 159.271C443.739 149.104 441.655 141.416 437.489 136.208C433.364 130.958 427.364 128.333 419.489 128.333C411.655 128.333 405.676 130.958 401.551 136.208C397.426 141.416 395.364 149.104 395.364 159.271C395.364 169.479 397.426 177.25 401.551 182.583C405.676 187.916 411.655 190.583 419.489 190.583ZM474.301 198.396C473.134 198.396 472.28 198.125 471.739 197.583C471.197 197.041 470.926 196.208 470.926 195.083V123.958C470.926 122.791 471.197 121.958 471.739 121.458C472.28 120.916 473.134 120.646 474.301 120.646H494.176C499.593 120.646 504.155 121.458 507.864 123.083C511.572 124.708 514.364 127 516.239 129.958C518.114 132.916 519.051 136.354 519.051 140.271C519.051 142.687 518.489 145.104 517.364 147.521C516.239 149.896 514.739 151.958 512.864 153.708C510.989 155.416 508.989 156.562 506.864 157.146V157.583C506.864 157.291 508.301 157.854 511.176 159.271C514.051 160.646 516.634 162.708 518.926 165.458C521.259 168.166 522.426 171.687 522.426 176.021C522.426 190.937 512.759 198.396 493.426 198.396H474.301ZM493.676 154.146C496.593 154.146 499.218 153.583 501.551 152.458C503.884 151.291 505.697 149.729 506.989 147.771C508.322 145.771 508.989 143.562 508.989 141.146C508.989 136.979 507.739 133.937 505.239 132.021C502.739 130.062 498.739 129.083 493.239 129.083H480.739V154.146H493.676ZM496.989 189.958C501.864 189.958 505.634 188.687 508.301 186.146C510.968 183.562 512.301 180.041 512.301 175.583C512.301 171.458 510.843 168.271 507.926 166.021C505.009 163.729 500.718 162.583 495.051 162.583H480.739V189.958H496.989ZM541.301 198.583C538.301 198.583 536.801 197.771 536.801 196.146V122.833C536.801 121.166 538.301 120.333 541.301 120.333H542.176C545.134 120.333 546.614 121.166 546.614 122.833V196.146C546.614 197.771 545.134 198.583 542.176 198.583H541.301Z" fill="#FFF8EF"/>
<path d="M20.8636 198.021L20.3566 198.883L20.3759 198.894L20.3958 198.904L20.8636 198.021ZM32.9261 122.396L32.0263 122.832L32.0419 122.864L32.0597 122.895L32.9261 122.396ZM53.9261 158.833L54.8512 158.453L54.8258 158.392L54.7926 158.334L53.9261 158.833ZM56.8011 165.833L55.8761 166.213L56.7582 168.361L57.7127 166.244L56.8011 165.833ZM59.6761 159.458L58.8067 158.964L58.7837 159.005L58.7646 159.047L59.6761 159.458ZM80.7386 122.396L81.6081 122.89L81.6182 122.872L81.6276 122.854L80.7386 122.396ZM84.8636 198.021L84.3566 198.883L84.3759 198.894L84.3958 198.904L84.8636 198.021ZM83.8011 136.333H84.8011L82.8648 135.982L83.8011 136.333ZM83.6136 136.833L84.4803 137.332L84.5212 137.261L84.55 137.184L83.6136 136.833ZM61.4886 175.271L62.3524 175.775L62.3553 175.769L61.4886 175.271ZM60.4886 176.396L60.9743 177.27L61.0097 177.25L61.0433 177.228L60.4886 176.396ZM52.1136 175.271L52.9842 174.779L52.9817 174.774L52.1136 175.271ZM29.4886 135.708L30.3567 135.212L28.4886 131.945V135.708H29.4886ZM24.3011 197.583C22.7512 197.583 21.8133 197.392 21.3315 197.137L20.3958 198.904C21.3307 199.399 22.6845 199.583 24.3011 199.583V197.583ZM21.3707 197.159C20.973 196.925 20.8011 196.631 20.8011 196.146H18.8011C18.8011 197.327 19.3376 198.283 20.3566 198.883L21.3707 197.159ZM20.8011 196.146V122.833H18.8011V196.146H20.8011ZM20.8011 122.833C20.8011 122.571 20.8584 122.39 20.9399 122.254C21.0223 122.117 21.1628 121.971 21.4118 121.832C21.94 121.539 22.861 121.333 24.3011 121.333V119.333C22.7413 119.333 21.4123 119.544 20.4405 120.084C19.9395 120.362 19.5175 120.737 19.2249 121.225C18.9314 121.714 18.8011 122.262 18.8011 122.833H20.8011ZM24.3011 121.333H28.2386V119.333H24.3011V121.333ZM28.2386 121.333C30.5678 121.333 31.6146 121.983 32.0263 122.832L33.826 121.959C32.9044 120.059 30.8261 119.333 28.2386 119.333V121.333ZM32.0597 122.895L53.0597 159.332L54.7926 158.334L33.7926 121.896L32.0597 122.895ZM53.0011 159.213L55.8761 166.213L57.7262 165.453L54.8512 158.453L53.0011 159.213ZM57.7127 166.244L60.5877 159.869L58.7646 159.047L55.8896 165.422L57.7127 166.244ZM60.5456 159.952L81.6081 122.89L79.8692 121.902L58.8067 158.964L60.5456 159.952ZM81.6276 122.854C82.0827 121.97 83.1426 121.333 85.3636 121.333V119.333C82.8346 119.333 80.8112 120.071 79.8497 121.938L81.6276 122.854ZM85.3636 121.333H89.0511V119.333H85.3636V121.333ZM89.0511 121.333C90.4692 121.333 91.3722 121.539 91.8884 121.829C92.3208 122.073 92.4886 122.369 92.4886 122.833H94.4886C94.4886 121.63 93.917 120.677 92.8701 120.087C91.9071 119.544 90.5914 119.333 89.0511 119.333V121.333ZM92.4886 122.833V196.146H94.4886V122.833H92.4886ZM92.4886 196.146C92.4886 196.395 92.4337 196.566 92.3564 196.693C92.2779 196.823 92.1423 196.963 91.8978 197.097C91.3787 197.382 90.4715 197.583 89.0511 197.583V199.583C90.5891 199.583 91.9007 199.378 92.8607 198.85C93.3558 198.578 93.7749 198.211 94.0662 197.731C94.3587 197.249 94.4886 196.709 94.4886 196.146H92.4886ZM89.0511 197.583H88.3011V199.583H89.0511V197.583ZM88.3011 197.583C86.7512 197.583 85.8133 197.392 85.3315 197.137L84.3958 198.904C85.3307 199.399 86.6845 199.583 88.3011 199.583V197.583ZM85.3707 197.159C84.973 196.925 84.8011 196.631 84.8011 196.146H82.8011C82.8011 197.327 83.3376 198.283 84.3566 198.883L85.3707 197.159ZM84.8011 196.146V136.333H82.8011V196.146H84.8011ZM82.8648 135.982L82.6773 136.482L84.55 137.184L84.7375 136.684L82.8648 135.982ZM82.747 136.334L60.622 174.772L62.3553 175.769L84.4803 137.332L82.747 136.334ZM60.6249 174.767C60.3888 175.171 60.1515 175.419 59.9339 175.564L61.0433 177.228C61.5758 176.873 62.0051 176.37 62.3524 175.775L60.6249 174.767ZM60.003 175.521C59.8205 175.623 59.5231 175.708 59.0511 175.708V177.708C59.7459 177.708 60.4068 177.585 60.9743 177.27L60.003 175.521ZM59.0511 175.708H54.6136V177.708H59.0511V175.708ZM54.6136 175.708C53.8393 175.708 53.3437 175.415 52.9842 174.779L51.2431 175.763C51.9669 177.043 53.1379 177.708 54.6136 177.708V175.708ZM52.9817 174.774L30.3567 135.212L28.6206 136.205L51.2456 175.767L52.9817 174.774ZM28.4886 135.708V196.146H30.4886V135.708H28.4886ZM28.4886 196.146C28.4886 196.395 28.4337 196.566 28.3564 196.693C28.2779 196.823 28.1423 196.963 27.8978 197.097C27.3787 197.382 26.4715 197.583 25.0511 197.583V199.583C26.5891 199.583 27.9007 199.378 28.8607 198.85C29.3558 198.578 29.7749 198.211 30.0662 197.731C30.3587 197.249 30.4886 196.709 30.4886 196.146H28.4886ZM25.0511 197.583H24.3011V199.583H25.0511V197.583ZM105.926 198.146L105.52 199.059L105.542 199.069L105.564 199.078L105.926 198.146ZM105.114 195.208L104.173 194.869L104.163 194.897L104.154 194.926L105.114 195.208ZM131.426 122.146L132.367 122.484L132.372 122.472L131.426 122.146ZM143.551 122.146L142.606 122.472L142.61 122.484L143.551 122.146ZM169.864 195.271L168.923 195.609L168.936 195.647L168.953 195.684L169.864 195.271ZM160.051 196.833L159.109 197.169L159.109 197.169L160.051 196.833ZM153.551 178.583L154.493 178.248L154.257 177.583H153.551V178.583ZM120.926 178.583V177.583H120.216L119.982 178.253L120.926 178.583ZM114.551 196.833L113.607 196.503L113.603 196.515L113.599 196.527L114.551 196.833ZM150.551 170.146V171.146H151.963L151.495 169.814L150.551 170.146ZM138.926 137.083L139.87 136.751L139.866 136.741L138.926 137.083ZM138.114 133.958L137.129 134.134L138.114 133.958ZM137.551 130.583L138.54 130.431L138.409 129.583H137.551V130.583ZM137.301 130.583V129.583H136.464L136.317 130.407L137.301 130.583ZM135.614 137.083L134.687 136.707L134.678 136.729L134.67 136.751L135.614 137.083ZM123.989 170.146L123.045 169.814L122.577 171.146H123.989V170.146ZM109.551 197.583C107.904 197.583 106.855 197.434 106.289 197.214L105.564 199.078C106.497 199.441 107.864 199.583 109.551 199.583V197.583ZM106.332 197.232C106.057 197.109 105.928 196.994 105.87 196.92C105.824 196.861 105.801 196.804 105.801 196.708H103.801C103.801 197.237 103.966 197.732 104.295 198.153C104.612 198.558 105.045 198.848 105.52 199.059L106.332 197.232ZM105.801 196.708C105.801 196.578 105.863 196.205 106.073 195.49L104.154 194.926C103.948 195.628 103.801 196.255 103.801 196.708H105.801ZM106.054 195.547L132.367 122.484L130.485 121.807L104.173 194.869L106.054 195.547ZM132.372 122.472C132.463 122.205 132.681 121.935 133.226 121.712C133.796 121.479 134.655 121.333 135.864 121.333V119.333C134.531 119.333 133.379 119.489 132.47 119.861C131.536 120.242 130.806 120.877 130.481 121.82L132.372 122.472ZM135.864 121.333H139.114V119.333H135.864V121.333ZM139.114 121.333C140.323 121.333 141.181 121.479 141.751 121.712C142.296 121.935 142.514 122.205 142.606 122.472L144.497 121.82C144.172 120.877 143.442 120.242 142.507 119.861C141.598 119.489 140.446 119.333 139.114 119.333V121.333ZM142.61 122.484L168.923 195.609L170.805 194.932L144.492 121.807L142.61 122.484ZM168.953 195.684C169.103 196.014 169.176 196.352 169.176 196.708H171.176C171.176 196.064 171.041 195.444 170.774 194.857L168.953 195.684ZM169.176 196.708C169.176 196.793 169.157 196.838 169.115 196.888C169.059 196.956 168.925 197.069 168.633 197.186C168.032 197.426 167.014 197.583 165.489 197.583V199.583C167.088 199.583 168.414 199.427 169.376 199.043C169.865 198.847 170.317 198.57 170.651 198.169C171 197.75 171.176 197.248 171.176 196.708H169.176ZM165.489 197.583H164.551V199.583H165.489V197.583ZM164.551 197.583C163.318 197.583 162.437 197.441 161.851 197.214C161.285 196.994 161.076 196.73 160.993 196.497L159.109 197.169C159.443 198.103 160.192 198.714 161.126 199.078C162.04 199.433 163.201 199.583 164.551 199.583V197.583ZM160.993 196.498L154.493 178.248L152.609 178.919L159.109 197.169L160.993 196.498ZM153.551 177.583H120.926V179.583H153.551V177.583ZM119.982 178.253L113.607 196.503L115.495 197.163L121.87 178.913L119.982 178.253ZM113.599 196.527C113.529 196.745 113.344 196.998 112.794 197.215C112.221 197.441 111.348 197.583 110.114 197.583V199.583C111.462 199.583 112.621 199.433 113.527 199.076C114.456 198.71 115.198 198.088 115.503 197.139L113.599 196.527ZM110.114 197.583H109.551V199.583H110.114V197.583ZM151.495 169.814L139.87 136.751L137.983 137.415L149.608 170.477L151.495 169.814ZM139.866 136.741C139.556 135.889 139.298 134.904 139.098 133.782L137.129 134.134C137.346 135.346 137.63 136.444 137.986 137.425L139.866 136.741ZM139.098 133.782C138.891 132.623 138.705 131.506 138.54 130.431L136.563 130.735C136.731 131.827 136.92 132.96 137.129 134.134L139.098 133.782ZM137.551 129.583H137.301V131.583H137.551V129.583ZM136.317 130.407C135.822 133.171 135.274 135.259 134.687 136.707L136.54 137.459C137.203 135.824 137.781 133.579 138.285 130.759L136.317 130.407ZM134.67 136.751L123.045 169.814L124.932 170.477L136.557 137.415L134.67 136.751ZM123.989 171.146H150.551V169.146H123.989V171.146ZM186.801 197.583C185.359 197.583 184.434 197.382 183.902 197.094C183.652 196.959 183.514 196.817 183.434 196.688C183.356 196.561 183.301 196.393 183.301 196.146H181.301C181.301 196.711 181.434 197.253 181.731 197.736C182.026 198.216 182.45 198.583 182.95 198.853C183.919 199.378 185.244 199.583 186.801 199.583V197.583ZM183.301 196.146V122.833H181.301V196.146H183.301ZM183.301 122.833C183.301 122.571 183.358 122.39 183.44 122.254C183.522 122.117 183.663 121.971 183.912 121.832C184.44 121.539 185.361 121.333 186.801 121.333V119.333C185.241 119.333 183.912 119.544 182.941 120.084C182.44 120.362 182.017 120.737 181.725 121.225C181.431 121.714 181.301 122.262 181.301 122.833H183.301ZM186.801 121.333H187.676V119.333H186.801V121.333ZM187.676 121.333C189.094 121.333 189.997 121.539 190.513 121.829C190.946 122.073 191.114 122.369 191.114 122.833H193.114C193.114 121.63 192.542 120.677 191.495 120.087C190.532 119.544 189.216 119.333 187.676 119.333V121.333ZM191.114 122.833V196.146H193.114V122.833H191.114ZM191.114 196.146C191.114 196.395 191.059 196.566 190.981 196.693C190.903 196.823 190.767 196.963 190.523 197.097C190.004 197.382 189.097 197.583 187.676 197.583V199.583C189.214 199.583 190.526 199.378 191.486 198.85C191.981 198.578 192.4 198.211 192.691 197.731C192.984 197.249 193.114 196.709 193.114 196.146H191.114ZM187.676 197.583H186.801V199.583H187.676V197.583ZM218.614 197.708L218.36 198.676L218.374 198.679L218.614 197.708ZM210.176 194.458L209.649 195.308L209.659 195.314L209.669 195.32L210.176 194.458ZM207.739 188.646L206.852 188.183L206.844 188.198L206.837 188.214L207.739 188.646ZM213.114 185.958L212.604 186.818L212.629 186.833L212.655 186.847L213.114 185.958ZM242.739 184.396L241.891 183.866L241.888 183.871L242.739 184.396ZM242.364 170.708L241.581 171.331L241.589 171.34L241.597 171.35L242.364 170.708ZM236.989 166.396L236.527 167.283L236.538 167.288L236.548 167.294L236.989 166.396ZM227.864 162.396L228.232 161.466L228.223 161.462L227.864 162.396ZM217.551 157.771L217.047 158.634L217.056 158.639L217.064 158.644L217.551 157.771ZM211.114 151.458L210.27 151.995L210.276 152.004L211.114 151.458ZM211.551 129.896L212.388 130.443L212.392 130.438L211.551 129.896ZM240.739 120.833L240.523 121.81L240.537 121.813L240.739 120.833ZM247.989 123.271L247.527 124.158L247.534 124.161L247.989 123.271ZM250.364 128.958L249.462 128.527L249.457 128.535L249.453 128.544L250.364 128.958ZM245.239 131.646L245.724 130.771L245.717 130.767L245.709 130.763L245.239 131.646ZM239.676 129.271L239.353 130.217L239.363 130.22L239.373 130.224L239.676 129.271ZM222.551 131.646L221.913 130.875L221.907 130.88L222.551 131.646ZM232.301 153.646L231.949 154.581L232.025 154.61L232.105 154.626L232.301 153.646ZM233.739 154.146L233.376 155.078L233.378 155.078L233.739 154.146ZM244.551 159.146L244.048 160.01L244.056 160.014L244.063 160.019L244.551 159.146ZM251.739 166.021L250.901 166.567L250.907 166.575L251.739 166.021ZM251.676 188.958L250.829 188.426L250.824 188.434L251.676 188.958ZM243.051 196.458L243.47 197.366L243.474 197.364L243.051 196.458ZM230.051 198.021C226.039 198.021 222.308 197.591 218.853 196.737L218.374 198.679C222.003 199.575 225.896 200.021 230.051 200.021V198.021ZM218.867 196.741C215.419 195.838 212.701 194.783 210.683 193.596L209.669 195.32C211.901 196.633 214.809 197.745 218.36 198.676L218.867 196.741ZM210.703 193.608C209.702 192.988 209.01 192.432 208.578 191.948C208.141 191.459 208.051 191.135 208.051 190.958H206.051C206.051 191.823 206.482 192.603 207.086 193.28C207.697 193.964 208.567 194.637 209.649 195.308L210.703 193.608ZM208.051 190.958C208.051 190.601 208.202 189.994 208.641 189.077L206.837 188.214C206.358 189.214 206.051 190.149 206.051 190.958H208.051ZM208.625 189.108C209.096 188.206 209.62 187.413 210.194 186.723L208.658 185.443C207.983 186.253 207.382 187.168 206.852 188.183L208.625 189.108ZM210.194 186.723C210.482 186.379 210.706 186.162 210.87 186.039C211.052 185.903 211.057 185.958 210.926 185.958V183.958C210.42 183.958 209.988 184.201 209.67 184.439C209.333 184.692 208.996 185.038 208.658 185.443L210.194 186.723ZM210.926 185.958C210.852 185.958 210.939 185.949 211.307 186.118C211.626 186.263 212.055 186.493 212.604 186.818L213.623 185.098C213.047 184.756 212.549 184.486 212.139 184.299C211.778 184.134 211.333 183.958 210.926 183.958V185.958ZM212.655 186.847C215.278 188.2 217.885 189.324 220.476 190.216L221.127 188.325C218.634 187.467 216.116 186.382 213.572 185.07L212.655 186.847ZM220.476 190.216C223.151 191.137 226.351 191.583 230.051 191.583V189.583C226.501 189.583 223.534 189.154 221.127 188.325L220.476 190.216ZM230.051 191.583C233.014 191.583 235.689 191.016 238.054 189.856L237.173 188.06C235.121 189.067 232.755 189.583 230.051 189.583V191.583ZM238.054 189.856C240.419 188.696 242.275 187.051 243.59 184.921L241.888 183.871C240.785 185.657 239.224 187.054 237.173 188.06L238.054 189.856ZM243.587 184.926C244.945 182.752 245.614 180.273 245.614 177.521H243.614C243.614 179.935 243.032 182.04 241.891 183.866L243.587 184.926ZM245.614 177.521C245.614 174.579 244.807 172.069 243.13 170.066L241.597 171.35C242.92 172.931 243.614 174.962 243.614 177.521H245.614ZM243.146 170.086C241.595 168.135 239.686 166.604 237.429 165.498L236.548 167.294C238.542 168.271 240.216 169.615 241.581 171.331L243.146 170.086ZM237.45 165.508C235.321 164.401 232.242 163.053 228.232 161.466L227.496 163.325C231.485 164.905 234.49 166.223 236.527 167.283L237.45 165.508ZM228.223 161.462C223.911 159.804 220.522 158.282 218.038 156.897L217.064 158.644C219.664 160.093 223.15 161.654 227.505 163.329L228.223 161.462ZM218.055 156.907C215.707 155.537 213.67 153.549 211.952 150.912L210.276 152.004C212.141 154.867 214.396 157.088 217.047 158.634L218.055 156.907ZM211.957 150.921C210.342 148.383 209.489 144.944 209.489 140.521H207.489C207.489 145.181 208.385 149.033 210.27 151.995L211.957 150.921ZM209.489 140.521C209.489 136.744 210.459 133.395 212.388 130.443L210.714 129.349C208.56 132.646 207.489 136.38 207.489 140.521H209.489ZM212.392 130.438C214.321 127.445 217.065 125.105 220.662 123.427L219.816 121.614C215.912 123.436 212.864 126.013 210.711 129.354L212.392 130.438ZM220.662 123.427C224.258 121.749 228.421 120.896 233.176 120.896V118.896C228.181 118.896 223.72 119.793 219.816 121.614L220.662 123.427ZM233.176 120.896C235.294 120.896 237.74 121.196 240.523 121.81L240.954 119.857C238.071 119.221 235.475 118.896 233.176 118.896V120.896ZM240.537 121.813C243.304 122.382 245.628 123.169 247.527 124.158L248.451 122.384C246.349 121.289 243.84 120.451 240.94 119.854L240.537 121.813ZM247.534 124.161C249.524 125.177 250.051 126.071 250.051 126.708H252.051C252.051 124.846 250.537 123.448 248.443 122.38L247.534 124.161ZM250.051 126.708C250.051 127.016 249.906 127.598 249.462 128.527L251.266 129.39C251.738 128.402 252.051 127.483 252.051 126.708H250.051ZM249.453 128.544C249.067 129.394 248.607 130.16 248.074 130.844L249.653 132.072C250.287 131.257 250.827 130.356 251.274 129.372L249.453 128.544ZM248.074 130.844C247.805 131.191 247.597 131.407 247.449 131.528C247.377 131.587 247.339 131.607 247.334 131.609C247.329 131.612 247.385 131.583 247.489 131.583V133.583C248.007 133.583 248.432 133.308 248.716 133.076C249.027 132.821 249.339 132.475 249.653 132.072L248.074 130.844ZM247.489 131.583C247.515 131.583 247.392 131.577 247.03 131.426C246.703 131.29 246.271 131.075 245.724 130.771L244.753 132.52C245.332 132.841 245.837 133.095 246.26 133.272C246.648 133.433 247.088 133.583 247.489 133.583V131.583ZM245.709 130.763C243.786 129.738 241.876 128.921 239.979 128.318L239.373 130.224C241.143 130.787 242.941 131.554 244.768 132.528L245.709 130.763ZM239.999 128.324C238.032 127.654 235.687 127.333 232.989 127.333V129.333C235.54 129.333 237.654 129.638 239.353 130.217L239.999 128.324ZM232.989 127.333C228.522 127.333 224.799 128.486 221.913 130.875L223.189 132.416C225.636 130.389 228.872 129.333 232.989 129.333V127.333ZM221.907 130.88C219.02 133.309 217.614 136.693 217.614 140.896H219.614C219.614 137.182 220.832 134.399 223.195 132.411L221.907 130.88ZM217.614 140.896C217.614 143.438 218.24 145.622 219.566 147.374L221.161 146.167C220.154 144.836 219.614 143.104 219.614 140.896H217.614ZM219.566 147.374C220.828 149.041 222.426 150.366 224.346 151.348L225.257 149.568C223.593 148.717 222.233 147.584 221.161 146.167L219.566 147.374ZM224.346 151.348C226.186 152.29 228.726 153.368 231.949 154.581L232.654 152.71C229.46 151.507 227 150.46 225.257 149.568L224.346 151.348ZM232.105 154.626C232.105 154.626 232.108 154.627 232.113 154.628C232.119 154.629 232.127 154.631 232.137 154.634C232.157 154.639 232.184 154.647 232.218 154.657C232.287 154.678 232.376 154.707 232.488 154.746C232.712 154.824 233.007 154.934 233.376 155.078L234.101 153.214C233.379 152.933 232.809 152.727 232.497 152.665L232.105 154.626ZM233.378 155.078C237.766 156.776 241.318 158.421 244.048 160.01L245.054 158.281C242.201 156.621 238.545 154.932 234.099 153.213L233.378 155.078ZM244.063 160.019C246.741 161.515 249.022 163.688 250.901 166.567L252.576 165.474C250.539 162.353 248.028 159.943 245.039 158.273L244.063 160.019ZM250.907 166.575C252.769 169.369 253.739 172.994 253.739 177.521H255.739C255.739 172.714 254.708 168.672 252.571 165.466L250.907 166.575ZM253.739 177.521C253.739 181.734 252.757 185.357 250.829 188.426L252.523 189.49C254.678 186.059 255.739 182.057 255.739 177.521H253.739ZM250.824 188.434C248.936 191.503 246.217 193.877 242.628 195.552L243.474 197.364C247.386 195.539 250.417 192.913 252.528 189.482L250.824 188.434ZM242.633 195.55C239.081 197.186 234.895 198.021 230.051 198.021V200.021C235.124 200.021 239.605 199.147 243.47 197.366L242.633 195.55ZM296.364 198.021L295.857 198.883L295.876 198.894L295.896 198.904L296.364 198.021ZM308.426 122.396L307.526 122.832L307.542 122.864L307.56 122.895L308.426 122.396ZM329.426 158.833L330.351 158.453L330.326 158.392L330.293 158.334L329.426 158.833ZM332.301 165.833L331.376 166.213L332.258 168.361L333.213 166.244L332.301 165.833ZM335.176 159.458L334.307 158.964L334.284 159.005L334.265 159.047L335.176 159.458ZM356.239 122.396L357.108 122.89L357.118 122.872L357.128 122.854L356.239 122.396ZM360.364 198.021L359.857 198.883L359.876 198.894L359.896 198.904L360.364 198.021ZM359.301 136.333H360.301L358.365 135.982L359.301 136.333ZM359.114 136.833L359.98 137.332L360.021 137.261L360.05 137.184L359.114 136.833ZM336.989 175.271L337.852 175.775L337.855 175.769L336.989 175.271ZM335.989 176.396L336.474 177.27L336.51 177.25L336.543 177.228L335.989 176.396ZM327.614 175.271L328.484 174.779L328.482 174.774L327.614 175.271ZM304.989 135.708L305.857 135.212L303.989 131.945V135.708H304.989ZM299.801 197.583C298.251 197.583 297.313 197.392 296.832 197.137L295.896 198.904C296.831 199.399 298.184 199.583 299.801 199.583V197.583ZM296.871 197.159C296.473 196.925 296.301 196.631 296.301 196.146H294.301C294.301 197.327 294.838 198.283 295.857 198.883L296.871 197.159ZM296.301 196.146V122.833H294.301V196.146H296.301ZM296.301 122.833C296.301 122.571 296.358 122.39 296.44 122.254C296.522 122.117 296.663 121.971 296.912 121.832C297.44 121.539 298.361 121.333 299.801 121.333V119.333C298.241 119.333 296.912 119.544 295.941 120.084C295.44 120.362 295.017 120.737 294.725 121.225C294.431 121.714 294.301 122.262 294.301 122.833H296.301ZM299.801 121.333H303.739V119.333H299.801V121.333ZM303.739 121.333C306.068 121.333 307.115 121.983 307.526 122.832L309.326 121.959C308.404 120.059 306.326 119.333 303.739 119.333V121.333ZM307.56 122.895L328.56 159.332L330.293 158.334L309.293 121.896L307.56 122.895ZM328.501 159.213L331.376 166.213L333.226 165.453L330.351 158.453L328.501 159.213ZM333.213 166.244L336.088 159.869L334.265 159.047L331.39 165.422L333.213 166.244ZM336.046 159.952L357.108 122.89L355.369 121.902L334.307 158.964L336.046 159.952ZM357.128 122.854C357.583 121.97 358.643 121.333 360.864 121.333V119.333C358.335 119.333 356.311 120.071 355.35 121.938L357.128 122.854ZM360.864 121.333H364.551V119.333H360.864V121.333ZM364.551 121.333C365.969 121.333 366.872 121.539 367.388 121.829C367.821 122.073 367.989 122.369 367.989 122.833H369.989C369.989 121.63 369.417 120.677 368.37 120.087C367.407 119.544 366.091 119.333 364.551 119.333V121.333ZM367.989 122.833V196.146H369.989V122.833H367.989ZM367.989 196.146C367.989 196.395 367.934 196.566 367.856 196.693C367.778 196.823 367.642 196.963 367.398 197.097C366.879 197.382 365.972 197.583 364.551 197.583V199.583C366.089 199.583 367.401 199.378 368.361 198.85C368.856 198.578 369.275 198.211 369.566 197.731C369.859 197.249 369.989 196.709 369.989 196.146H367.989ZM364.551 197.583H363.801V199.583H364.551V197.583ZM363.801 197.583C362.251 197.583 361.313 197.392 360.832 197.137L359.896 198.904C360.831 199.399 362.184 199.583 363.801 199.583V197.583ZM360.871 197.159C360.473 196.925 360.301 196.631 360.301 196.146H358.301C358.301 197.327 358.838 198.283 359.857 198.883L360.871 197.159ZM360.301 196.146V136.333H358.301V196.146H360.301ZM358.365 135.982L358.177 136.482L360.05 137.184L360.237 136.684L358.365 135.982ZM358.247 136.334L336.122 174.772L337.855 175.769L359.98 137.332L358.247 136.334ZM336.125 174.767C335.889 175.171 335.652 175.419 335.434 175.564L336.543 177.228C337.076 176.873 337.505 176.37 337.852 175.775L336.125 174.767ZM335.503 175.521C335.32 175.623 335.023 175.708 334.551 175.708V177.708C335.246 177.708 335.907 177.585 336.474 177.27L335.503 175.521ZM334.551 175.708H330.114V177.708H334.551V175.708ZM330.114 175.708C329.339 175.708 328.844 175.415 328.484 174.779L326.743 175.763C327.467 177.043 328.638 177.708 330.114 177.708V175.708ZM328.482 174.774L305.857 135.212L304.121 136.205L326.746 175.767L328.482 174.774ZM303.989 135.708V196.146H305.989V135.708H303.989ZM303.989 196.146C303.989 196.395 303.934 196.566 303.856 196.693C303.778 196.823 303.642 196.963 303.398 197.097C302.879 197.382 301.972 197.583 300.551 197.583V199.583C302.089 199.583 303.401 199.378 304.361 198.85C304.856 198.578 305.275 198.211 305.566 197.731C305.859 197.249 305.989 196.709 305.989 196.146H303.989ZM300.551 197.583H299.801V199.583H300.551V197.583ZM393.989 129.896L393.236 129.237L393.236 129.237L393.989 129.896ZM445.051 129.896L444.299 130.554L444.301 130.556L445.051 129.896ZM437.489 182.583L438.277 183.199L438.279 183.196L437.489 182.583ZM437.489 136.208L436.702 136.826L436.708 136.833L437.489 136.208ZM401.551 136.208L402.335 136.829L402.337 136.826L401.551 136.208ZM419.489 198.021C408.576 198.021 400.406 194.719 394.808 188.242L393.295 189.549C399.363 196.572 408.151 200.021 419.489 200.021V198.021ZM394.808 188.242C389.19 181.741 386.301 172.138 386.301 159.271H384.301C384.301 172.403 387.246 182.55 393.295 189.549L394.808 188.242ZM386.301 159.271C386.301 146.443 389.17 136.927 394.742 130.554L393.236 129.237C387.224 136.114 384.301 146.182 384.301 159.271H386.301ZM394.741 130.554C400.337 124.159 408.529 120.896 419.489 120.896V118.896C408.115 118.896 399.307 122.299 393.236 129.237L394.741 130.554ZM419.489 120.896C430.491 120.896 438.703 124.16 444.299 130.554L445.804 129.237C439.732 122.298 430.903 118.896 419.489 118.896V120.896ZM444.301 130.556C449.912 136.93 452.801 146.444 452.801 159.271H454.801C454.801 146.18 451.857 136.112 445.802 129.235L444.301 130.556ZM452.801 159.271C452.801 172.138 449.913 181.741 444.295 188.242L445.808 189.549C451.856 182.55 454.801 172.403 454.801 159.271H452.801ZM444.295 188.242C438.698 194.718 430.487 198.021 419.489 198.021V200.021C430.907 200.021 439.738 196.574 445.808 189.549L444.295 188.242ZM419.489 191.583C427.575 191.583 433.889 188.815 438.277 183.199L436.701 181.967C432.755 187.018 427.069 189.583 419.489 189.583V191.583ZM438.279 183.196C442.634 177.578 444.739 169.554 444.739 159.271H442.739C442.739 169.32 440.676 176.839 436.698 181.97L438.279 183.196ZM444.739 159.271C444.739 148.99 442.636 141.041 438.27 135.583L436.708 136.833C440.675 141.792 442.739 149.218 442.739 159.271H444.739ZM438.275 135.59C433.925 130.054 427.609 127.333 419.489 127.333V129.333C427.119 129.333 432.802 131.862 436.702 136.826L438.275 135.59ZM419.489 127.333C411.408 127.333 405.113 130.056 400.765 135.59L402.337 136.826C406.239 131.861 411.902 129.333 419.489 129.333V127.333ZM400.767 135.587C396.445 141.044 394.364 148.992 394.364 159.271H396.364C396.364 149.216 398.407 141.789 402.335 136.829L400.767 135.587ZM394.364 159.271C394.364 169.592 396.446 177.617 400.76 183.195L402.342 181.971C398.407 176.883 396.364 169.366 396.364 159.271H394.364ZM400.76 183.195C405.107 188.815 411.402 191.583 419.489 191.583V189.583C411.908 189.583 406.246 187.018 402.342 181.971L400.76 183.195ZM471.739 121.458L472.417 122.193L472.432 122.179L472.446 122.165L471.739 121.458ZM517.364 147.521L518.267 147.949L518.27 147.943L517.364 147.521ZM512.864 153.708L513.537 154.447L513.546 154.439L512.864 153.708ZM506.864 157.146L506.599 156.181L505.864 156.383V157.146H506.864ZM511.176 159.271L510.734 160.168L510.745 160.173L511.176 159.271ZM518.926 165.458L518.158 166.098L518.163 166.105L518.169 166.111L518.926 165.458ZM501.551 152.458L501.985 153.359L501.992 153.356L501.998 153.353L501.551 152.458ZM506.989 147.771L506.157 147.216L506.154 147.22L506.989 147.771ZM505.239 132.021L504.622 132.808L504.63 132.814L505.239 132.021ZM480.739 129.083V128.083H479.739V129.083H480.739ZM480.739 154.146H479.739V155.146H480.739V154.146ZM508.301 186.146L508.991 186.87L508.997 186.864L508.301 186.146ZM507.926 166.021L507.308 166.807L507.315 166.812L507.926 166.021ZM480.739 162.583V161.583H479.739V162.583H480.739ZM480.739 189.958H479.739V190.958H480.739V189.958ZM474.301 197.396C473.263 197.396 472.722 197.152 472.446 196.876L471.032 198.29C471.839 199.098 473.006 199.396 474.301 199.396V197.396ZM472.446 196.876C472.164 196.594 471.926 196.067 471.926 195.083H469.926C469.926 196.349 470.23 197.489 471.032 198.29L472.446 196.876ZM471.926 195.083V123.958H469.926V195.083H471.926ZM471.926 123.958C471.926 122.911 472.174 122.418 472.417 122.193L471.06 120.723C470.22 121.499 469.926 122.672 469.926 123.958H471.926ZM472.446 122.165C472.722 121.889 473.263 121.646 474.301 121.646V119.646C473.006 119.646 471.839 119.944 471.032 120.751L472.446 122.165ZM474.301 121.646H494.176V119.646H474.301V121.646ZM494.176 121.646C499.499 121.646 503.916 122.445 507.462 123.999L508.265 122.167C504.395 120.471 499.687 119.646 494.176 119.646V121.646ZM507.462 123.999C511.017 125.557 513.641 127.728 515.394 130.493L517.083 129.423C515.086 126.271 512.126 123.859 508.265 122.167L507.462 123.999ZM515.394 130.493C517.156 133.273 518.051 136.52 518.051 140.271H520.051C520.051 136.188 519.071 132.56 517.083 129.423L515.394 130.493ZM518.051 140.271C518.051 142.527 517.527 144.8 516.457 147.099L518.27 147.943C519.45 145.408 520.051 142.848 520.051 140.271H518.051ZM516.46 147.093C515.388 149.356 513.962 151.315 512.181 152.977L513.546 154.439C515.516 152.601 517.09 150.435 518.267 147.949L516.46 147.093ZM512.19 152.969C510.414 154.587 508.55 155.646 506.599 156.181L507.128 158.11C509.427 157.479 511.563 156.246 513.537 154.447L512.19 152.969ZM505.864 157.146V157.583H507.864V157.146H505.864ZM507.864 157.583C507.864 157.788 507.792 158.035 507.598 158.235C507.425 158.413 507.235 158.471 507.143 158.491C506.983 158.526 506.885 158.495 506.948 158.507C507.03 158.523 507.227 158.58 507.577 158.717C508.255 158.982 509.301 159.462 510.734 160.168L511.618 158.374C510.176 157.663 509.066 157.153 508.306 156.855C507.938 156.711 507.595 156.594 507.318 156.542C507.201 156.52 506.969 156.482 506.719 156.537C506.582 156.566 506.358 156.641 506.163 156.842C505.946 157.065 505.864 157.342 505.864 157.583H507.864ZM510.745 160.173C513.475 161.478 515.947 163.445 518.158 166.098L519.694 164.818C517.322 161.971 514.628 159.813 511.608 158.368L510.745 160.173ZM518.169 166.111C520.314 168.601 521.426 171.874 521.426 176.021H523.426C523.426 171.501 522.205 167.732 519.684 164.805L518.169 166.111ZM521.426 176.021C521.426 183.245 519.098 188.513 514.565 192.01C509.983 195.546 502.992 197.396 493.426 197.396V199.396C503.194 199.396 510.703 197.516 515.787 193.594C520.921 189.633 523.426 183.713 523.426 176.021H521.426ZM493.426 197.396H474.301V199.396H493.426V197.396ZM493.676 155.146C496.724 155.146 499.5 154.557 501.985 153.359L501.117 151.557C498.935 152.609 496.461 153.146 493.676 153.146V155.146ZM501.998 153.353C504.471 152.116 506.424 150.442 507.823 148.321L506.154 147.22C504.969 149.016 503.298 150.467 501.104 151.564L501.998 153.353ZM507.821 148.325C509.264 146.16 509.989 143.759 509.989 141.146H507.989C507.989 143.366 507.38 145.381 506.157 147.216L507.821 148.325ZM509.989 141.146C509.989 136.777 508.669 133.391 505.847 131.227L504.63 132.814C506.808 134.484 507.989 137.181 507.989 141.146H509.989ZM505.855 131.233C503.091 129.068 498.815 128.083 493.239 128.083V130.083C498.662 130.083 502.387 131.057 504.622 132.808L505.855 131.233ZM493.239 128.083H480.739V130.083H493.239V128.083ZM479.739 129.083V154.146H481.739V129.083H479.739ZM480.739 155.146H493.676V153.146H480.739V155.146ZM496.989 190.958C502.035 190.958 506.085 189.64 508.991 186.869L507.611 185.422C505.184 187.735 501.692 188.958 496.989 188.958V190.958ZM508.997 186.864C511.896 184.055 513.301 180.254 513.301 175.583H511.301C511.301 179.829 510.039 183.07 507.605 185.427L508.997 186.864ZM513.301 175.583C513.301 171.191 511.731 167.693 508.537 165.229L507.315 166.812C509.955 168.849 511.301 171.726 511.301 175.583H513.301ZM508.544 165.234C505.38 162.748 500.83 161.583 495.051 161.583V163.583C500.606 163.583 504.639 164.71 507.308 166.807L508.544 165.234ZM495.051 161.583H480.739V163.583H495.051V161.583ZM479.739 162.583V189.958H481.739V162.583H479.739ZM480.739 190.958H496.989V188.958H480.739V190.958ZM541.301 197.583C539.859 197.583 538.934 197.382 538.402 197.094C538.152 196.959 538.014 196.817 537.934 196.688C537.856 196.561 537.801 196.393 537.801 196.146H535.801C535.801 196.711 535.934 197.253 536.231 197.736C536.526 198.216 536.95 198.583 537.45 198.853C538.419 199.378 539.744 199.583 541.301 199.583V197.583ZM537.801 196.146V122.833H535.801V196.146H537.801ZM537.801 122.833C537.801 122.571 537.858 122.39 537.94 122.254C538.022 122.117 538.163 121.971 538.412 121.832C538.94 121.539 539.861 121.333 541.301 121.333V119.333C539.741 119.333 538.412 119.544 537.441 120.084C536.94 120.362 536.517 120.737 536.225 121.225C535.931 121.714 535.801 122.262 535.801 122.833H537.801ZM541.301 121.333H542.176V119.333H541.301V121.333ZM542.176 121.333C543.594 121.333 544.497 121.539 545.013 121.829C545.446 122.073 545.614 122.369 545.614 122.833H547.614C547.614 121.63 547.042 120.677 545.995 120.087C545.032 119.544 543.716 119.333 542.176 119.333V121.333ZM545.614 122.833V196.146H547.614V122.833H545.614ZM545.614 196.146C545.614 196.395 545.559 196.566 545.481 196.693C545.403 196.823 545.267 196.963 545.023 197.097C544.504 197.382 543.597 197.583 542.176 197.583V199.583C543.714 199.583 545.026 199.378 545.986 198.85C546.481 198.578 546.9 198.211 547.191 197.731C547.484 197.249 547.614 196.709 547.614 196.146H545.614ZM542.176 197.583H541.301V199.583H542.176V197.583Z" fill="black"/>
</svg>
